<svg xmlns="http://www.w3.org/2000/svg" width="512" height="512" viewBox="0 0 512 512">
  <rect width="512" height="512" rx="64" fill="#0a0a0a"/>
  <!-- Candle body -->
  <rect x="180" y="200" width="152" height="220" rx="12" fill="#fef3c7"/>
  <rect x="180" y="200" width="152" height="220" rx="12" fill="url(#candle-gradient)"/>
  <!-- Wick -->
  <rect x="248" y="160" width="16" height="50" fill="#78350f"/>
  <!-- Flame outer glow -->
  <ellipse cx="256" cy="120" rx="45" ry="60" fill="#fbbf24" opacity="0.5"/>
  <!-- Flame -->
  <path d="M256 60 Q280 100 270 140 Q256 160 242 140 Q232 100 256 60Z" fill="#f59e0b"/>
  <path d="M256 75 Q272 105 265 130 Q256 145 247 130 Q240 105 256 75Z" fill="#fcd34d"/>
  <path d="M256 90 Q264 110 260 125 Q256 135 252 125 Q248 110 256 90Z" fill="#fef3c7"/>
  <!-- Candle gradient -->
  <defs>
    <linearGradient id="candle-gradient" x1="0%" y1="0%" x2="100%" y2="0%">
      <stop offset="0%" style="stop-color:#fef3c7;stop-opacity:1" />
      <stop offset="50%" style="stop-color:#fff;stop-opacity:1" />
      <stop offset="100%" style="stop-color:#fef3c7;stop-opacity:1" />
    </linearGradient>
  </defs>
</svg>
